<svg xmlns="http://www.w3.org/2000/svg" width="757" height="493" viewBox="0 0 757 493">
<rect width="100%" height="100%" fill="#ffffff"/>
<g font-family="Helvetica,Arial,sans-serif">
<polygon points="70.0,268.0 160.0,246.4 178.0,206.8 280.6,230.2 280.6,178.0 338.2,253.6 446.2,169.0 590.2,241.0 529.0,388.6 388.6,422.8 329.2,341.8 232.9,422.8 232.9,309.4" fill="#f2f4f7" stroke="#111111" stroke-width="3" stroke-linejoin="round"/>
<polygon points="687.4,275.2 642.4,275.2 593.8,345.4 565.0,269.8 593.8,241.0 527.2,167.2 446.2,167.2 338.2,251.8 293.2,131.2 218.5,160.0 218.5,107.8 293.2,70.0 624.4,154.6 638.8,71.8" fill="#f2f4f7" stroke="#111111" stroke-width="3" stroke-linejoin="round"/>
<text x="115.0" y="252.2" font-size="12" fill="#1a56db" text-anchor="middle" transform="rotate(-13.5 115.0 257.2)">1.03</text>
<text x="169.0" y="221.6" font-size="12" fill="#1a56db" text-anchor="middle" transform="rotate(-65.6 169.0 226.6)">0.48</text>
<text x="229.3" y="213.5" font-size="12" fill="#1a56db" text-anchor="middle" transform="rotate(12.8 229.3 218.5)">1.17</text>
<text x="280.6" y="199.1" font-size="12" fill="#1a56db" text-anchor="middle" transform="rotate(-90.0 280.6 204.1)">0.58</text>
<text x="309.4" y="210.8" font-size="12" fill="#1a56db" text-anchor="middle" transform="rotate(52.7 309.4 215.8)">1.06</text>
<text x="392.2" y="206.3" font-size="12" fill="#1a56db" text-anchor="middle" transform="rotate(-38.1 392.2 211.3)">1.52</text>
<text x="518.2" y="200.0" font-size="12" fill="#1a56db" text-anchor="middle" transform="rotate(26.6 518.2 205.0)">1.79</text>
<text x="559.6" y="309.8" font-size="12" fill="#1a56db" text-anchor="middle" transform="rotate(292.5 559.6 314.8)">1.78</text>
<text x="458.8" y="400.7" font-size="12" fill="#1a56db" text-anchor="middle" transform="rotate(346.3 458.8 405.7)">1.61</text>
<text x="358.9" y="377.3" font-size="12" fill="#1a56db" text-anchor="middle" transform="rotate(53.7 358.9 382.3)">1.12</text>
<text x="281.1" y="377.3" font-size="12" fill="#1a56db" text-anchor="middle" transform="rotate(319.9 281.1 382.3)">1.40</text>
<text x="232.9" y="361.1" font-size="12" fill="#1a56db" text-anchor="middle" transform="rotate(-90.0 232.9 366.1)">1.26</text>
<text x="151.4" y="283.7" font-size="12" fill="#1a56db" text-anchor="middle" transform="rotate(14.3 151.4 288.7)">1.87</text>
<text x="312.0" y="283.0" font-size="15" font-weight="bold" text-anchor="middle" fill="#111111">R1</text>
<text x="312.0" y="301.0" font-size="12" text-anchor="middle" fill="#444444">8.97 m²</text>
<text x="312.0" y="317.0" font-size="11" text-anchor="middle" fill="#777777">h 2.55 m (not seen)</text>
<text x="664.9" y="270.2" font-size="12" fill="#1a56db" text-anchor="middle" transform="rotate(360.0 664.9 275.2)">0.50</text>
<text x="618.1" y="305.3" font-size="12" fill="#1a56db" text-anchor="middle" transform="rotate(304.7 618.1 310.3)">0.95</text>
<text x="579.4" y="302.6" font-size="12" fill="#1a56db" text-anchor="middle" transform="rotate(69.1 579.4 307.6)">0.90</text>
<text x="579.4" y="250.4" font-size="12" fill="#1a56db" text-anchor="middle" transform="rotate(-45.0 579.4 255.4)">0.45</text>
<text x="560.5" y="199.1" font-size="12" fill="#1a56db" text-anchor="middle" transform="rotate(47.9 560.5 204.1)">1.10</text>
<text x="486.7" y="162.2" font-size="12" fill="#1a56db" text-anchor="middle" transform="rotate(360.0 486.7 167.2)">0.90</text>
<text x="392.2" y="204.5" font-size="12" fill="#1a56db" text-anchor="middle" transform="rotate(321.9 392.2 209.5)">1.52</text>
<text x="315.7" y="186.5" font-size="12" fill="#1a56db" text-anchor="middle" transform="rotate(69.5 315.7 191.5)">1.43</text>
<text x="255.8" y="140.6" font-size="12" fill="#1a56db" text-anchor="middle" transform="rotate(338.9 255.8 145.6)">0.89</text>
<text x="218.5" y="128.9" font-size="12" fill="#1a56db" text-anchor="middle" transform="rotate(-90.0 218.5 133.9)">0.58</text>
<text x="255.8" y="83.9" font-size="12" fill="#1a56db" text-anchor="middle" transform="rotate(-26.8 255.8 88.9)">0.93</text>
<text x="458.8" y="107.3" font-size="12" fill="#1a56db" text-anchor="middle" transform="rotate(14.3 458.8 112.3)">3.80</text>
<text x="631.6" y="108.2" font-size="12" fill="#1a56db" text-anchor="middle" transform="rotate(-80.1 631.6 113.2)">0.93</text>
<text x="663.1" y="168.5" font-size="12" fill="#1a56db" text-anchor="middle" transform="rotate(76.6 663.1 173.5)">2.32</text>
<text x="477.2" y="192.0" font-size="15" font-weight="bold" text-anchor="middle" fill="#111111">R2</text>
<text x="477.2" y="210.0" font-size="12" text-anchor="middle" fill="#444444">15.17 m²</text>
<text x="477.2" y="226.0" font-size="11" text-anchor="middle" fill="#777777">h 2.55 m (not seen)</text>
<text x="70" y="469" font-size="12" fill="#111111">c00a170fe1 · video tier · 2 rooms · 24.13 m² [6.67, 41.60]</text>
<text x="70" y="485" font-size="10" fill="#777777">every dimension in metres; intervals are nominal 90%</text>
</g>
</svg>