999
dxflib 3.3.4.0
  0
SECTION
  2
HEADER
  9
$ACADVER
  1
AC1015
  9
$HANDSEED
  5
FFFFF
  9
$INSUNITS
 70
6
  9
$LUNITS
 70
2
  9
$MEASUREMENT
 70
1
  9
$LTSCALE
 40
10.0
  9
$DIMEXE
 40
1.25
  9
$TEXTSTYLE
  7
Standard
  9
$LIMMIN
 10
0.0
 20
0.0
  9
$SHADEDGE
 70
3
  0
ENDSEC
  0
SECTION
  2
TABLES
  0
TABLE
  2
VPORT
  5
8
100
AcDbSymbolTable
 70
1
  0
VPORT
  5
30
100
AcDbSymbolTableRecord
100
AcDbViewportTableRecord
  2
*Active
 70
0
 10
-2.77233998
 20
-2.87802001
 11
4.59340006
 21
2.22565999
 12
0.91053004
 22
-0.32618001
 13
0.0
 23
0.0
 14
10.0
 24
10.0
 15
1.0
 25
1.0
 16
0.0
 26
0.0
 36
1.0
 17
0.0
 27
0.0
 37
0.0
 40
7.89794024
 41
1.92798354
 42
50.0
 43
0.0
 44
0.0
 50
0.0
 51
0.0
 71
0
 72
100
 73
1
 74
3
 75
1
 76
1
 77
0
 78
0
281
0
 65
1
110
0.0
120
0.0
130
0.0
111
1.0
121
0.0
131
0.0
112
0.0
122
1.0
132
0.0
 79
0
146
0.0
  0
ENDTAB
  0
TABLE
  2
LTYPE
  5
5
100
AcDbSymbolTable
 70
4
  0
LTYPE
  5
14
100
AcDbSymbolTableRecord
100
AcDbLinetypeTableRecord
  2
BYBLOCK
 70
0
  3

 72
65
 73
0
 40
0.0
  0
LTYPE
  5
15
100
AcDbSymbolTableRecord
100
AcDbLinetypeTableRecord
  2
BYLAYER
 70
0
  3

 72
65
 73
0
 40
0.0
  0
LTYPE
  5
16
100
AcDbSymbolTableRecord
100
AcDbLinetypeTableRecord
  2
CONTINUOUS
 70
0
  3
Solid line
 72
65
 73
0
 40
0.0
  0
LTYPE
  5
31
100
AcDbSymbolTableRecord
100
AcDbLinetypeTableRecord
  2
DASHED2
 70
0
  3
Dashed (.5x) _ _ _ _ _ _ _ _ _ _ _ _ _ _ _ _ _
 72
65
 73
2
 40
9.525
 49
6.35
 74
0
 49
-3.175
 74
0
  0
ENDTAB
  0
TABLE
  2
LAYER
  5
2
100
AcDbSymbolTable
 70
6
  0
LAYER
  5
10
100
AcDbSymbolTableRecord
100
AcDbLayerTableRecord
  2
0
 70
0
 62
7
  6
CONTINUOUS
370
100
390
F
  0
LAYER
  5
32
100
AcDbSymbolTableRecord
100
AcDbLayerTableRecord
  2
doors
 70
0
 62
1
  6
CONTINUOUS
370
100
390
F
  0
LAYER
  5
33
100
AcDbSymbolTableRecord
100
AcDbLayerTableRecord
  2
furnitures
 70
0
 62
6
  6
CONTINUOUS
370
100
390
F
  0
LAYER
  5
34
100
AcDbSymbolTableRecord
100
AcDbLayerTableRecord
  2
texts
 70
0
 62
5
  6
CONTINUOUS
370
100
390
F
  0
LAYER
  5
35
100
AcDbSymbolTableRecord
100
AcDbLayerTableRecord
  2
walls
 70
0
 62
8
  6
CONTINUOUS
370
100
390
F
  0
LAYER
  5
36
100
AcDbSymbolTableRecord
100
AcDbLayerTableRecord
  2
windows
 70
0
 62
3
  6
CONTINUOUS
370
100
390
F
  0
ENDTAB
  0
TABLE
  2
STYLE
  5
3
100
AcDbSymbolTable
 70
1
  0
STYLE
  5
11
100
AcDbSymbolTableRecord
100
AcDbTextStyleTableRecord
  2
Standard
 70
0
 40
0.0
 41
0.75
 50
0.0
 71
0
 42
2.5
  3
txt
  4
bigfont.shx
  0
ENDTAB
  0
TABLE
  2
VIEW
  5
6
100
AcDbSymbolTable
 70
0
  0
ENDTAB
  0
TABLE
  2
UCS
  5
7
100
AcDbSymbolTable
 70
0
  0
ENDTAB
  0
TABLE
  2
APPID
  5
9
100
AcDbSymbolTable
 70
1
  0
APPID
  5
12
100
AcDbSymbolTableRecord
100
AcDbRegAppTableRecord
  2
ACAD
 70
0
  0
ENDTAB
  0
TABLE
  2
DIMSTYLE
  5
A
100
AcDbSymbolTable
 70
1
100
AcDbDimStyleTable
 71
0
  0
DIMSTYLE
105
27
100
AcDbSymbolTableRecord
100
AcDbDimStyleTableRecord
  2
Standard
 41
1.0
 42
1.0
 43
3.75
 44
1.0
 70
0
 73
0
 74
0
 77
1
 78
8
140
1.0
141
2.5
143
0.03937008
147
1.0
171
3
172
1
271
2
272
2
274
3
278
44
283
0
284
8
340
0
  0
ENDTAB
  0
TABLE
  2
BLOCK_RECORD
  5
1
100
AcDbSymbolTable
 70
1
  0
BLOCK_RECORD
  5
1F
100
AcDbSymbolTableRecord
100
AcDbBlockTableRecord
  2
*Model_Space
340
22
  0
BLOCK_RECORD
  5
1B
100
AcDbSymbolTableRecord
100
AcDbBlockTableRecord
  2
*Paper_Space
340
1E
  0
BLOCK_RECORD
  5
23
100
AcDbSymbolTableRecord
100
AcDbBlockTableRecord
  2
*Paper_Space0
340
26
  0
BLOCK_RECORD
  5
37
100
AcDbSymbolTableRecord
100
AcDbBlockTableRecord
  2
W-0-0
340
0
  0
BLOCK_RECORD
  5
38
100
AcDbSymbolTableRecord
100
AcDbBlockTableRecord
  2
W-0-1
340
0
  0
BLOCK_RECORD
  5
39
100
AcDbSymbolTableRecord
100
AcDbBlockTableRecord
  2
W-1-0
340
0
  0
ENDTAB
  0
ENDSEC
  0
SECTION
  2
BLOCKS
  0
BLOCK
  5
20
100
AcDbEntity
  8
0
100
AcDbBlockBegin
  2
*Model_Space
 70
0
 10
0.0
 20
0.0
 30
0.0
  3
*Model_Space
  1

  0
ENDBLK
  5
21
100
AcDbEntity
  8
0
100
AcDbBlockEnd
  0
BLOCK
  5
1C
100
AcDbEntity
 67
1
  8
0
100
AcDbBlockBegin
  2
*Paper_Space
 70
0
 10
0.0
 20
0.0
 30
0.0
  3
*Paper_Space
  1

  0
ENDBLK
  5
1D
100
AcDbEntity
 67
1
  8
0
100
AcDbBlockEnd
  0
BLOCK
  5
24
100
AcDbEntity
  8
0
100
AcDbBlockBegin
  2
*Paper_Space0
 70
0
 10
0.0
 20
0.0
 30
0.0
  3
*Paper_Space0
  1

  0
ENDBLK
  5
25
100
AcDbEntity
  8
0
100
AcDbBlockEnd
  0
BLOCK
  5
3A
100
AcDbEntity
  8
0
100
AcDbBlockBegin
  2
W-0-0
 70
0
 10
0.0
 20
0.0
 30
0.0
  3
W-0-0
  1

  0
LWPOLYLINE
  5
3B
  8
0
 62
0
370
-1
  6
BYLAYER
100
AcDbEntity
100
AcDbPolyline
 90
2
 70
0
 43
0.01
 10
451.34994388
 20
-0.0000596
 30
0.0
 10
451.34994388
 20
-0.0000596
 30
0.0
  0
LWPOLYLINE
  5
3C
  8
0
 62
0
370
-1
  6
BYLAYER
100
AcDbEntity
100
AcDbPolyline
 90
2
 70
0
 43
0.01
 10
451.34994388
 20
-0.0000596
 30
0.0
 10
443.11306853
 20
-122.53191213
 30
0.0
  0
LWPOLYLINE
  5
3D
  8
0
 62
0
370
-1
  6
BYLAYER
100
AcDbEntity
100
AcDbPolyline
 90
2
 70
0
 43
0.01
 10
443.11306853
 20
-122.53191213
 30
0.0
 10
419.11812458
 20
-240.04092937
 30
0.0
  0
LWPOLYLINE
  5
3E
  8
0
 62
0
370
-1
  6
BYLAYER
100
AcDbEntity
100
AcDbPolyline
 90
2
 70
0
 43
0.01
 10
419.11812458
 20
-240.04092937
 30
0.0
 10
380.43863513
 20
-351.45358788
 30
0.0
  0
LWPOLYLINE
  5
3F
  8
0
 62
0
370
-1
  6
BYLAYER
100
AcDbEntity
100
AcDbPolyline
 90
2
 70
0
 43
0.01
 10
380.43863513
 20
-351.45358788
 30
0.0
 10
328.14812329
 20
-455.69636424
 30
0.0
  0
LWPOLYLINE
  5
40
  8
0
 62
0
370
-1
  6
BYLAYER
100
AcDbEntity
100
AcDbPolyline
 90
2
 70
0
 43
0.01
 10
328.14812329
 20
-455.69636424
 30
0.0
 10
263.32011219
 20
-551.69573504
 30
0.0
  0
LWPOLYLINE
  5
41
  8
0
 62
0
370
-1
  6
BYLAYER
100
AcDbEntity
100
AcDbPolyline
 90
2
 70
0
 43
0.01
 10
263.32011219
 20
-551.69573504
 30
0.0
 10
187.02812493
 20
-638.37817684
 30
0.0
  0
LWPOLYLINE
  5
42
  8
0
 62
0
370
-1
  6
BYLAYER
100
AcDbEntity
100
AcDbPolyline
 90
2
 70
0
 43
0.01
 10
187.02812493
 20
-638.37817684
 30
0.0
 10
100.34568463
 20
-714.67016622
 30
0.0
  0
LWPOLYLINE
  5
43
  8
0
 62
0
370
-1
  6
BYLAYER
100
AcDbEntity
100
AcDbPolyline
 90
2
 70
0
 43
0.01
 10
100.34568463
 20
-714.67016622
 30
0.0
 10
4.3463144
 20
-779.49817975
 30
0.0
  0
LWPOLYLINE
  5
44
  8
0
 62
0
370
-1
  6
BYLAYER
100
AcDbEntity
100
AcDbPolyline
 90
2
 70
0
 43
0.01
 10
4.3463144
 20
-779.49817975
 30
0.0
 10
-99.89646263
 20
-831.78869402
 30
0.0
  0
LWPOLYLINE
  5
45
  8
0
 62
0
370
-1
  6
BYLAYER
100
AcDbEntity
100
AcDbPolyline
 90
2
 70
0
 43
0.01
 10
-99.89646263
 20
-831.78869402
 30
0.0
 10
-211.30912337
 20
-870.46818559
 30
0.0
  0
LWPOLYLINE
  5
46
  8
0
 62
0
370
-1
  6
BYLAYER
100
AcDbEntity
100
AcDbPolyline
 90
2
 70
0
 43
0.01
 10
-211.30912337
 20
-870.46818559
 30
0.0
 10
-328.81814469
 20
-894.46313105
 30
0.0
  0
LWPOLYLINE
  5
47
  8
0
 62
0
370
-1
  6
BYLAYER
100
AcDbEntity
100
AcDbPolyline
 90
2
 70
0
 43
0.01
 10
-328.81814469
 20
-894.46313105
 30
0.0
 10
-451.35000348
 20
-902.70000696
 30
0.0
  0
LWPOLYLINE
  5
48
  8
0
 62
0
370
-1
  6
BYLAYER
100
AcDbEntity
100
AcDbPolyline
 90
2
 70
0
 43
0.01
 10
-451.35000348
 20
-902.70000696
 30
0.0
 10
-451.35000348
 20
-827.47501021
 30
0.0
  0
LWPOLYLINE
  5
49
  8
0
 62
0
370
-1
  6
BYLAYER
100
AcDbEntity
100
AcDbPolyline
 90
2
 70
0
 43
0.01
 10
-451.35000348
 20
-827.47501021
 30
0.0
 10
-451.35000348
 20
-752.2500116
 30
0.0
  0
LWPOLYLINE
  5
4A
  8
0
 62
0
370
-1
  6
BYLAYER
100
AcDbEntity
100
AcDbPolyline
 90
2
 70
0
 43
0.01
 10
-451.35000348
 20
-752.2500116
 30
0.0
 10
-451.35000348
 20
-677.02501174
 30
0.0
  0
LWPOLYLINE
  5
4B
  8
0
 62
0
370
-1
  6
BYLAYER
100
AcDbEntity
100
AcDbPolyline
 90
2
 70
0
 43
0.01
 10
-451.35000348
 20
-677.02501174
 30
0.0
 10
-451.35000348
 20
-601.80001126
 30
0.0
  0
LWPOLYLINE
  5
4C
  8
0
 62
0
370
-1
  6
BYLAYER
100
AcDbEntity
100
AcDbPolyline
 90
2
 70
0
 43
0.01
 10
-451.35000348
 20
-601.80001126
 30
0.0
 10
-451.35000348
 20
-526.57501079
 30
0.0
  0
LWPOLYLINE
  5
4D
  8
0
 62
0
370
-1
  6
BYLAYER
100
AcDbEntity
100
AcDbPolyline
 90
2
 70
0
 43
0.01
 10
-451.35000348
 20
-526.57501079
 30
0.0
 10
-451.35000348
 20
-451.35001093
 30
0.0
  0
LWPOLYLINE
  5
4E
  8
0
 62
0
370
-1
  6
BYLAYER
100
AcDbEntity
100
AcDbPolyline
 90
2
 70
0
 43
0.01
 10
-451.35000348
 20
-451.35001093
 30
0.0
 10
-451.35000348
 20
-376.12501232
 30
0.0
  0
LWPOLYLINE
  5
4F
  8
0
 62
0
370
-1
  6
BYLAYER
100
AcDbEntity
100
AcDbPolyline
 90
2
 70
0
 43
0.01
 10
-451.35000348
 20
-376.12501232
 30
0.0
 10
-451.35000348
 20
-300.90001557
 30
0.0
  0
LWPOLYLINE
  5
50
  8
0
 62
0
370
-1
  6
BYLAYER
100
AcDbEntity
100
AcDbPolyline
 90
2
 70
0
 43
0.01
 10
-451.35000348
 20
-300.90001557
 30
0.0
 10
-451.35000348
 20
-225.6750213
 30
0.0
  0
LWPOLYLINE
  5
51
  8
0
 62
0
370
-1
  6
BYLAYER
100
AcDbEntity
100
AcDbPolyline
 90
2
 70
0
 43
0.01
 10
-451.35000348
 20
-225.6750213
 30
0.0
 10
-451.35000348
 20
-150.45003013
 30
0.0
  0
LWPOLYLINE
  5
52
  8
0
 62
0
370
-1
  6
BYLAYER
100
AcDbEntity
100
AcDbPolyline
 90
2
 70
0
 43
0.01
 10
-451.35000348
 20
-150.45003013
 30
0.0
 10
-451.35000348
 20
-75.2250427
 30
0.0
  0
LWPOLYLINE
  5
53
  8
0
 62
0
370
-1
  6
BYLAYER
100
AcDbEntity
100
AcDbPolyline
 90
2
 70
0
 43
0.01
 10
-451.35000348
 20
-75.2250427
 30
0.0
 10
-451.35000348
 20
-0.0000596
 30
0.0
  0
ENDBLK
  5
54
100
AcDbEntity
  8
0
100
AcDbBlockEnd
  0
BLOCK
  5
55
100
AcDbEntity
  8
0
100
AcDbBlockBegin
  2
W-0-1
 70
0
 10
0.0
 20
0.0
 30
0.0
  3
W-0-1
  1

  0
LWPOLYLINE
  5
56
  8
0
 62
0
370
-1
  6
BYLAYER
100
AcDbEntity
100
AcDbPolyline
 90
2
 70
0
 43
0.01
 10
387.06499338
 20
-0.0
 30
0.0
 10
387.06499338
 20
-0.0
 30
0.0
  0
LWPOLYLINE
  5
57
  8
0
 62
0
370
-1
  6
BYLAYER
100
AcDbEntity
100
AcDbPolyline
 90
2
 70
0
 43
0.01
 10
387.06499338
 20
-0.0
 30
0.0
 10
380.00128163
 20
-105.07985579
 30
0.0
  0
LWPOLYLINE
  5
58
  8
0
 62
0
370
-1
  6
BYLAYER
100
AcDbEntity
100
AcDbPolyline
 90
2
 70
0
 43
0.01
 10
380.00128163
 20
-105.07985579
 30
0.0
 10
359.42389513
 20
-205.85227026
 30
0.0
  0
LWPOLYLINE
  5
59
  8
0
 62
0
370
-1
  6
BYLAYER
100
AcDbEntity
100
AcDbPolyline
 90
2
 70
0
 43
0.01
 10
359.42389513
 20
-205.85227026
 30
0.0
 10
326.25345699
 20
-301.39661999
 30
0.0
  0
LWPOLYLINE
  5
5A
  8
0
 62
0
370
-1
  6
BYLAYER
100
AcDbEntity
100
AcDbPolyline
 90
2
 70
0
 43
0.01
 10
326.25345699
 20
-301.39661999
 30
0.0
 10
281.41059037
 20
-390.79228154
 30
0.0
  0
LWPOLYLINE
  5
5B
  8
0
 62
0
370
-1
  6
BYLAYER
100
AcDbEntity
100
AcDbPolyline
 90
2
 70
0
 43
0.01
 10
281.41059037
 20
-390.79228154
 30
0.0
 10
225.81591837
 20
-473.11863146
 30
0.0
  0
LWPOLYLINE
  5
5C
  8
0
 62
0
370
-1
  6
BYLAYER
100
AcDbEntity
100
AcDbPolyline
 90
2
 70
0
 43
0.01
 10
225.81591837
 20
-473.11863146
 30
0.0
 10
160.39006412
 20
-547.45504633
 30
0.0
  0
LWPOLYLINE
  5
5D
  8
0
 62
0
370
-1
  6
BYLAYER
100
AcDbEntity
100
AcDbPolyline
 90
2
 70
0
 43
0.01
 10
160.39006412
 20
-547.45504633
 30
0.0
 10
86.05365076
 20
-612.88090269
 30
0.0
  0
LWPOLYLINE
  5
5E
  8
0
 62
0
370
-1
  6
BYLAYER
100
AcDbEntity
100
AcDbPolyline
 90
2
 70
0
 43
0.01
 10
86.05365076
 20
-612.88090269
 30
0.0
 10
3.7273014
 20
-668.47557712
 30
0.0
  0
LWPOLYLINE
  5
5F
  8
0
 62
0
370
-1
  6
BYLAYER
100
AcDbEntity
100
AcDbPolyline
 90
2
 70
0
 43
0.01
 10
3.7273014
 20
-668.47557712
 30
0.0
 10
-85.66836081
 20
-713.31844619
 30
0.0
  0
LWPOLYLINE
  5
60
  8
0
 62
0
370
-1
  6
BYLAYER
100
AcDbEntity
100
AcDbPolyline
 90
2
 70
0
 43
0.01
 10
-85.66836081
 20
-713.31844619
 30
0.0
 10
-181.21271277
 20
-746.48888644
 30
0.0
  0
LWPOLYLINE
  5
61
  8
0
 62
0
370
-1
  6
BYLAYER
100
AcDbEntity
100
AcDbPolyline
 90
2
 70
0
 43
0.01
 10
-181.21271277
 20
-746.48888644
 30
0.0
 10
-281.98513133
 20
-767.06627444
 30
0.0
  0
LWPOLYLINE
  5
62
  8
0
 62
0
370
-1
  6
BYLAYER
100
AcDbEntity
100
AcDbPolyline
 90
2
 70
0
 43
0.01
 10
-281.98513133
 20
-767.06627444
 30
0.0
 10
-387.06499338
 20
-774.12998676
 30
0.0
  0
LWPOLYLINE
  5
63
  8
0
 62
0
370
-1
  6
BYLAYER
100
AcDbEntity
100
AcDbPolyline
 90
2
 70
0
 43
0.01
 10
-387.06499338
 20
-774.12998676
 30
0.0
 10
-387.06499338
 20
-709.61915586
 30
0.0
  0
LWPOLYLINE
  5
64
  8
0
 62
0
370
-1
  6
BYLAYER
100
AcDbEntity
100
AcDbPolyline
 90
2
 70
0
 43
0.01
 10
-387.06499338
 20
-709.61915586
 30
0.0
 10
-387.06499338
 20
-645.10832299
 30
0.0
  0
LWPOLYLINE
  5
65
  8
0
 62
0
370
-1
  6
BYLAYER
100
AcDbEntity
100
AcDbPolyline
 90
2
 70
0
 43
0.01
 10
-387.06499338
 20
-645.10832299
 30
0.0
 10
-387.06499338
 20
-580.59748868
 30
0.0
  0
LWPOLYLINE
  5
66
  8
0
 62
0
370
-1
  6
BYLAYER
100
AcDbEntity
100
AcDbPolyline
 90
2
 70
0
 43
0.01
 10
-387.06499338
 20
-580.59748868
 30
0.0
 10
-387.06499338
 20
-516.08665343
 30
0.0
  0
LWPOLYLINE
  5
67
  8
0
 62
0
370
-1
  6
BYLAYER
100
AcDbEntity
100
AcDbPolyline
 90
2
 70
0
 43
0.01
 10
-387.06499338
 20
-516.08665343
 30
0.0
 10
-387.06499338
 20
-451.57581776
 30
0.0
  0
LWPOLYLINE
  5
68
  8
0
 62
0
370
-1
  6
BYLAYER
100
AcDbEntity
100
AcDbPolyline
 90
2
 70
0
 43
0.01
 10
-387.06499338
 20
-451.57581776
 30
0.0
 10
-387.06499338
 20
-387.06498221
 30
0.0
  0
LWPOLYLINE
  5
69
  8
0
 62
0
370
-1
  6
BYLAYER
100
AcDbEntity
100
AcDbPolyline
 90
2
 70
0
 43
0.01
 10
-387.06499338
 20
-387.06498221
 30
0.0
 10
-387.06499338
 20
-322.55414727
 30
0.0
  0
LWPOLYLINE
  5
6A
  8
0
 62
0
370
-1
  6
BYLAYER
100
AcDbEntity
100
AcDbPolyline
 90
2
 70
0
 43
0.01
 10
-387.06499338
 20
-322.55414727
 30
0.0
 10
-387.06499338
 20
-258.04331347
 30
0.0
  0
LWPOLYLINE
  5
6B
  8
0
 62
0
370
-1
  6
BYLAYER
100
AcDbEntity
100
AcDbPolyline
 90
2
 70
0
 43
0.01
 10
-387.06499338
 20
-258.04331347
 30
0.0
 10
-387.06499338
 20
-193.53248132
 30
0.0
  0
LWPOLYLINE
  5
6C
  8
0
 62
0
370
-1
  6
BYLAYER
100
AcDbEntity
100
AcDbPolyline
 90
2
 70
0
 43
0.01
 10
-387.06499338
 20
-193.53248132
 30
0.0
 10
-387.06499338
 20
-129.02165135
 30
0.0
  0
LWPOLYLINE
  5
6D
  8
0
 62
0
370
-1
  6
BYLAYER
100
AcDbEntity
100
AcDbPolyline
 90
2
 70
0
 43
0.01
 10
-387.06499338
 20
-129.02165135
 30
0.0
 10
-387.06499338
 20
-64.51082407
 30
0.0
  0
LWPOLYLINE
  5
6E
  8
0
 62
0
370
-1
  6
BYLAYER
100
AcDbEntity
100
AcDbPolyline
 90
2
 70
0
 43
0.01
 10
-387.06499338
 20
-64.51082407
 30
0.0
 10
-387.06499338
 20
-0.0
 30
0.0
  0
ENDBLK
  5
6F
100
AcDbEntity
  8
0
100
AcDbBlockEnd
  0
BLOCK
  5
70
100
AcDbEntity
  8
0
100
AcDbBlockBegin
  2
W-1-0
 70
0
 10
0.0
 20
0.0
 30
0.0
  3
W-1-0
  1

  0
LWPOLYLINE
  5
71
  8
0
 62
0
370
-1
  6
BYLAYER
100
AcDbEntity
100
AcDbPolyline
 90
2
 70
0
 43
0.01
 10
390.99499583
 20
-0.0
 30
0.0
 10
390.99499583
 20
-0.0
 30
0.0
  0
LWPOLYLINE
  5
72
  8
0
 62
0
370
-1
  6
BYLAYER
100
AcDbEntity
100
AcDbPolyline
 90
2
 70
0
 43
0.01
 10
390.99499583
 20
-0.0
 30
0.0
 10
383.85956367
 20
-106.14677203
 30
0.0
  0
LWPOLYLINE
  5
73
  8
0
 62
0
370
-1
  6
BYLAYER
100
AcDbEntity
100
AcDbPolyline
 90
2
 70
0
 43
0.01
 10
383.85956367
 20
-106.14677203
 30
0.0
 10
363.07324759
 20
-207.94236619
 30
0.0
  0
LWPOLYLINE
  5
74
  8
0
 62
0
370
-1
  6
BYLAYER
100
AcDbEntity
100
AcDbPolyline
 90
2
 70
0
 43
0.01
 10
363.07324759
 20
-207.94236619
 30
0.0
 10
329.56601819
 20
-304.45681186
 30
0.0
  0
LWPOLYLINE
  5
75
  8
0
 62
0
370
-1
  6
BYLAYER
100
AcDbEntity
100
AcDbPolyline
 90
2
 70
0
 43
0.01
 10
329.56601819
 20
-304.45681186
 30
0.0
 10
284.26784608
 20
-394.76013846
 30
0.0
  0
LWPOLYLINE
  5
76
  8
0
 62
0
370
-1
  6
BYLAYER
100
AcDbEntity
100
AcDbPolyline
 90
2
 70
0
 43
0.01
 10
284.26784608
 20
-394.76013846
 30
0.0
 10
228.10870187
 20
-477.92237537
 30
0.0
  0
LWPOLYLINE
  5
77
  8
0
 62
0
370
-1
  6
BYLAYER
100
AcDbEntity
100
AcDbPolyline
 90
2
 70
0
 43
0.01
 10
228.10870187
 20
-477.92237537
 30
0.0
 10
162.01855615
 20
-553.01355198
 30
0.0
  0
LWPOLYLINE
  5
78
  8
0
 62
0
370
-1
  6
BYLAYER
100
AcDbEntity
100
AcDbPolyline
 90
2
 70
0
 43
0.01
 10
162.01855615
 20
-553.01355198
 30
0.0
 10
86.92737953
 20
-619.1036977
 30
0.0
  0
LWPOLYLINE
  5
79
  8
0
 62
0
370
-1
  6
BYLAYER
100
AcDbEntity
100
AcDbPolyline
 90
2
 70
0
 43
0.01
 10
86.92737953
 20
-619.1036977
 30
0.0
 10
3.76514263
 20
-675.26284191
 30
0.0
  0
LWPOLYLINE
  5
7A
  8
0
 62
0
370
-1
  6
BYLAYER
100
AcDbEntity
100
AcDbPolyline
 90
2
 70
0
 43
0.01
 10
3.76514263
 20
-675.26284191
 30
0.0
 10
-86.53818397
 20
-720.56101402
 30
0.0
  0
LWPOLYLINE
  5
7B
  8
0
 62
0
370
-1
  6
BYLAYER
100
AcDbEntity
100
AcDbPolyline
 90
2
 70
0
 43
0.01
 10
-86.53818397
 20
-720.56101402
 30
0.0
 10
-183.05262965
 20
-754.06824342
 30
0.0
  0
LWPOLYLINE
  5
7C
  8
0
 62
0
370
-1
  6
BYLAYER
100
AcDbEntity
100
AcDbPolyline
 90
2
 70
0
 43
0.01
 10
-183.05262965
 20
-754.06824342
 30
0.0
 10
-284.8482238
 20
-774.8545595
 30
0.0
  0
LWPOLYLINE
  5
7D
  8
0
 62
0
370
-1
  6
BYLAYER
100
AcDbEntity
100
AcDbPolyline
 90
2
 70
0
 43
0.01
 10
-284.8482238
 20
-774.8545595
 30
0.0
 10
-390.99499583
 20
-781.98999166
 30
0.0
  0
LWPOLYLINE
  5
7E
  8
0
 62
0
370
-1
  6
BYLAYER
100
AcDbEntity
100
AcDbPolyline
 90
2
 70
0
 43
0.01
 10
-390.99499583
 20
-781.98999166
 30
0.0
 10
-390.99499583
 20
-716.82415903
 30
0.0
  0
LWPOLYLINE
  5
7F
  8
0
 62
0
370
-1
  6
BYLAYER
100
AcDbEntity
100
AcDbPolyline
 90
2
 70
0
 43
0.01
 10
-390.99499583
 20
-716.82415903
 30
0.0
 10
-390.99499583
 20
-651.65832639
 30
0.0
  0
LWPOLYLINE
  5
80
  8
0
 62
0
370
-1
  6
BYLAYER
100
AcDbEntity
100
AcDbPolyline
 90
2
 70
0
 43
0.01
 10
-390.99499583
 20
-651.65832639
 30
0.0
 10
-390.99499583
 20
-586.49249375
 30
0.0
  0
LWPOLYLINE
  5
81
  8
0
 62
0
370
-1
  6
BYLAYER
100
AcDbEntity
100
AcDbPolyline
 90
2
 70
0
 43
0.01
 10
-390.99499583
 20
-586.49249375
 30
0.0
 10
-390.99499583
 20
-521.32666111
 30
0.0
  0
LWPOLYLINE
  5
82
  8
0
 62
0
370
-1
  6
BYLAYER
100
AcDbEntity
100
AcDbPolyline
 90
2
 70
0
 43
0.01
 10
-390.99499583
 20
-521.32666111
 30
0.0
 10
-390.99499583
 20
-456.16082847
 30
0.0
  0
LWPOLYLINE
  5
83
  8
0
 62
0
370
-1
  6
BYLAYER
100
AcDbEntity
100
AcDbPolyline
 90
2
 70
0
 43
0.01
 10
-390.99499583
 20
-456.16082847
 30
0.0
 10
-390.99499583
 20
-390.99499583
 30
0.0
  0
LWPOLYLINE
  5
84
  8
0
 62
0
370
-1
  6
BYLAYER
100
AcDbEntity
100
AcDbPolyline
 90
2
 70
0
 43
0.01
 10
-390.99499583
 20
-390.99499583
 30
0.0
 10
-390.99499583
 20
-325.82916319
 30
0.0
  0
LWPOLYLINE
  5
85
  8
0
 62
0
370
-1
  6
BYLAYER
100
AcDbEntity
100
AcDbPolyline
 90
2
 70
0
 43
0.01
 10
-390.99499583
 20
-325.82916319
 30
0.0
 10
-390.99499583
 20
-260.66333055
 30
0.0
  0
LWPOLYLINE
  5
86
  8
0
 62
0
370
-1
  6
BYLAYER
100
AcDbEntity
100
AcDbPolyline
 90
2
 70
0
 43
0.01
 10
-390.99499583
 20
-260.66333055
 30
0.0
 10
-390.99499583
 20
-195.49749792
 30
0.0
  0
LWPOLYLINE
  5
87
  8
0
 62
0
370
-1
  6
BYLAYER
100
AcDbEntity
100
AcDbPolyline
 90
2
 70
0
 43
0.01
 10
-390.99499583
 20
-195.49749792
 30
0.0
 10
-390.99499583
 20
-130.33166528
 30
0.0
  0
LWPOLYLINE
  5
88
  8
0
 62
0
370
-1
  6
BYLAYER
100
AcDbEntity
100
AcDbPolyline
 90
2
 70
0
 43
0.01
 10
-390.99499583
 20
-130.33166528
 30
0.0
 10
-390.99499583
 20
-65.16583264
 30
0.0
  0
LWPOLYLINE
  5
89
  8
0
 62
0
370
-1
  6
BYLAYER
100
AcDbEntity
100
AcDbPolyline
 90
2
 70
0
 43
0.01
 10
-390.99499583
 20
-65.16583264
 30
0.0
 10
-390.99499583
 20
-0.0
 30
0.0
  0
ENDBLK
  5
8A
100
AcDbEntity
  8
0
100
AcDbBlockEnd
  0
ENDSEC
  0
SECTION
  2
ENTITIES
  0
LWPOLYLINE
  5
8B
  8
walls
 62
256
370
-1
  6
BYLAYER
100
AcDbEntity
100
AcDbPolyline
 90
12
 70
1
 10
0.259
 20
1.725
 30
0.0
 10
-0.49
 20
1.725
 30
0.0
 10
-0.49
 20
1.237
 30
0.0
 10
-2.272
 20
1.237
 30
0.0
 10
-2.272
 20
-2.377
 30
0.0
 10
-0.309
 20
-2.378
 30
0.0
 10
-0.309
 20
-2.628
 30
0.0
 10
-2.522
 20
-2.627
 30
0.0
 10
-2.522
 20
1.487
 30
0.0
 10
-0.74
 20
1.487
 30
0.0
 10
-0.74
 20
1.975
 30
0.0
 10
0.259
 20
1.975
 30
0.0
  0
LWPOLYLINE
  5
8C
  8
walls
 62
256
370
-1
  6
BYLAYER
100
AcDbEntity
100
AcDbPolyline
 90
6
 70
1
 10
1.418
 20
-2.628
 30
0.0
 10
0.464
 20
-2.628
 30
0.0
 10
0.464
 20
-2.378
 30
0.0
 10
1.161
 20
-2.378
 30
0.0
 10
1.161
 20
1.975
 30
0.0
 10
1.418
 20
1.975
 30
0.0
  0
LWPOLYLINE
  5
8D
  8
walls
 62
256
370
-1
  6
BYLAYER
100
AcDbEntity
100
AcDbPolyline
 90
10
 70
1
 10
4.343
 20
0.46
 30
0.0
 10
2.319
 20
0.46
 30
0.0
 10
2.32
 20
-1.112
 30
0.0
 10
4.093
 20
-1.112
 30
0.0
 10
4.093
 20
-0.321
 30
0.0
 10
4.343
 20
-0.321
 30
0.0
 10
4.343
 20
-1.362
 30
0.0
 10
2.07
 20
-1.362
 30
0.0
 10
2.069
 20
0.71
 30
0.0
 10
4.343
 20
0.71
 30
0.0
  0
TEXT
  5
8E
100
AcDbEntity
100
AcDbText
  8
texts
 62
256
370
-1
  6
BYLAYER
 10
-1.25194998
 20
-0.37618001
 30
0.0
 40
0.2
  1
\U+0042\U+0065\U+0064\U+0072\U+006f\U+006f\U+006d
 50
0.0
 41
1.0
  7
STANDARD
 71
0
 72
1
 11
-0.25194998
 21
-0.37618001
 31
0.0
100
AcDbText
 73
2
  0
INSERT
  5
8F
100
AcDbEntity
100
AcDbBlockReference
  8
doors
 62
256
370
-1
  6
BYLAYER
  2
W-0-0
 10
0.71038175
 20
1.78565999
 30
0.0
 41
0.001
 42
0.001
 43
1.0
 70
0
 71
0
  0
INSERT
  5
90
100
AcDbEntity
100
AcDbBlockReference
  8
doors
 62
256
370
-1
  6
BYLAYER
  2
W-0-1
 10
0.07742881
 20
-2.43798196
 30
0.0
 41
0.001
 42
0.001
 43
1.0
 50
179.99800173
 70
0
 71
0
  0
TEXT
  5
91
100
AcDbEntity
100
AcDbText
  8
texts
 62
256
370
-1
  6
BYLAYER
 10
2.40668006
 20
-0.12618001
 30
0.0
 40
0.2
  1
\U+0042\U+0061\U+0074\U+0068\U+0072\U+006f\U+006f\U+006d
 50
0.0
 41
1.0
  7
STANDARD
 71
0
 72
1
 11
3.40668006
 21
-0.12618001
 31
0.0
100
AcDbText
 73
2
  0
INSERT
  5
92
100
AcDbEntity
100
AcDbBlockReference
  8
doors
 62
256
370
-1
  6
BYLAYER
  2
W-1-0
 10
4.15338265
 20
0.06916232
 30
0.0
 41
0.001
 42
0.001
 43
1.0
 50
-90.00255066
 70
0
 71
0
  0
ENDSEC
  0
SECTION
  2
OBJECTS
  0
DICTIONARY
  5
C
100
AcDbDictionary
280
0
281
1
  3
ACAD_GROUP
350
D
  3
ACAD_LAYOUT
350
1A
  3
ACAD_MLINESTYLE
350
17
  3
ACAD_PLOTSETTINGS
350
19
  3
ACAD_PLOTSTYLENAME
350
E
  3
AcDbVariableDictionary
350
93
  0
DICTIONARY
  5
D
100
AcDbDictionary
280
0
281
1
  0
ACDBDICTIONARYWDFLT
  5
E
100
AcDbDictionary
281
1
  3
Normal
350
F
100
AcDbDictionaryWithDefault
340
F
  0
ACDBPLACEHOLDER
  5
F
  0
DICTIONARY
  5
17
100
AcDbDictionary
280
0
281
1
  3
Standard
350
18
  0
MLINESTYLE
  5
18
100
AcDbMlineStyle
  2
STANDARD
 70
0
  3

 62
256
 51
90.0
 52
90.0
 71
2
 49
0.5
 62
256
  6
BYLAYER
 49
-0.5
 62
256
  6
BYLAYER
  0
DICTIONARY
  5
19
100
AcDbDictionary
280
0
281
1
  0
DICTIONARY
  5
1A
100
AcDbDictionary
281
1
  3
Layout1
350
1E
  3
Layout2
350
26
  3
Model
350
22
  0
LAYOUT
  5
1E
100
AcDbPlotSettings
  1

  2
none_device
  4

  6

 40
0.0
 41
0.0
 42
0.0
 43
0.0
 44
0.0
 45
0.0
 46
0.0
 47
0.0
 48
0.0
 49
0.0
140
0.0
141
0.0
142
1.0
143
1.0
 70
688
 72
0
 73
0
 74
5
  7

 75
16
147
1.0
148
0.0
149
0.0
100
AcDbLayout
  1
Layout1
 70
1
 71
1
 10
0.0
 20
0.0
 11
420.0
 21
297.0
 12
0.0
 22
0.0
 32
0.0
 14
100000000000000000000.0
 24
100000000000000000000.0
 34
100000000000000000000.0
 15
-100000000000000000000.0
 25
-100000000000000000000.0
 35
-100000000000000000000.0
146
0.0
 13
0.0
 23
0.0
 33
0.0
 16
1.0
 26
0.0
 36
0.0
 17
0.0
 27
1.0
 37
0.0
 76
0
330
1B
  0
LAYOUT
  5
22
100
AcDbPlotSettings
  1

  2
none_device
  4

  6

 40
0.0
 41
0.0
 42
0.0
 43
0.0
 44
0.0
 45
0.0
 46
0.0
 47
0.0
 48
0.0
 49
0.0
140
0.0
141
0.0
142
1.0
143
1.0
 70
1712
 72
0
 73
0
 74
0
  7

 75
0
147
1.0
148
0.0
149
0.0
100
AcDbLayout
  1
Model
 70
1
 71
0
 10
0.0
 20
0.0
 11
12.0
 21
9.0
 12
0.0
 22
0.0
 32
0.0
 14
0.0
 24
0.0
 34
0.0
 15
0.0
 25
0.0
 35
0.0
146
0.0
 13
0.0
 23
0.0
 33
0.0
 16
1.0
 26
0.0
 36
0.0
 17
0.0
 27
1.0
 37
0.0
 76
0
330
1F
  0
LAYOUT
  5
26
100
AcDbPlotSettings
  1

  2
none_device
  4

  6

 40
0.0
 41
0.0
 42
0.0
 43
0.0
 44
0.0
 45
0.0
 46
0.0
 47
0.0
 48
0.0
 49
0.0
140
0.0
141
0.0
142
1.0
143
1.0
 70
688
 72
0
 73
0
 74
5
  7

 75
16
147
1.0
148
0.0
149
0.0
100
AcDbLayout
  1
Layout2
 70
1
 71
2
 10
0.0
 20
0.0
 11
12.0
 21
9.0
 12
0.0
 22
0.0
 32
0.0
 14
0.0
 24
0.0
 34
0.0
 15
0.0
 25
0.0
 35
0.0
146
0.0
 13
0.0
 23
0.0
 33
0.0
 16
1.0
 26
0.0
 36
0.0
 17
0.0
 27
1.0
 37
0.0
 76
0
330
23
  0
DICTIONARY
  5
93
100
AcDbDictionary
281
1
  3
DIMASSOC
350
95
  3
HIDETEXT
350
94
  0
DICTIONARYVAR
  5
94
100
DictionaryVariables
280
0
  1
2
  0
DICTIONARYVAR
  5
95
100
DictionaryVariables
280
0
  1
1
  0
ENDSEC
  0
EOF
